# xmcd
#
# Track frame offsets:
#	155
#	18792
#	41477
#	59550
#	77950
#	96267
#	132037
#	152222
#	172490
#
# Disc length: 2549 seconds
#
# Revision: 1
# Processed by: cddbd v1.4PL0 Copyright (c) Steve Scherf et al.
# Submitted via: EasyCDDAExtractor 5.0.4.1
#
DISCID=7609f309
DTITLE=Wilson Pickett - American Soul Man
DYEAR=1900
DGENRE=Soul
TTITLE0=A Thing Called Love
TTITLE1=When Your Heart Speaks
TTITLE2=Love Never Let Me Down
TTITLE3=A Man Of Value
TTITLE4=(I Wanna) Make Love To You
TTITLE5=In The Midnight Hour
TTITLE6=Don't Turn Away
TTITLE7=Just Let Her Know
TTITLE8=Can't Stop Now
EXTD=
EXTT0=
EXTT1=
EXTT2=
EXTT3=
EXTT4=
EXTT5=
EXTT6=
EXTT7=
EXTT8=
PLAYORDER=
